{
  "accessors": [
    {
      "bufferView": 2,
      "componentType": 5126,
      "count": 152,
      "max": [
        0.30768099427223206,
        -0.702472984790802,
        0.073186300694942474
      ],
      "min": [
        -0.30768099427223206,
        -0.79540097713470459,
        -1
      ],
      "type": "VEC3"
    },
    {
      "bufferView": 2,
      "byteOffset": 1824,
      "componentType": 5126,
      "count": 152,
      "max": [
        1,
        1,
        1
      ],
      "min": [
        -1,
        -1,
        -1
      ],
      "type": "VEC3"
    },
    {
      "bufferView": 3,
      "componentType": 5126,
      "count": 152,
      "max": [
        1,
        4.5854376367060468e-06,
        1,
        1
      ],
      "min": [
        -1,
        -1,
        -1,
        -1
      ],
      "type": "VEC4"
    },
    {
      "bufferView": 1,
      "componentType": 5126,
      "count": 152,
      "max": [
        0.98726701736450195,
        0.19602100551128387
      ],
      "min": [
        0.7230370044708252,
        0.025053899735212326
      ],
      "type": "VEC2"
    },
    {
      "bufferView": 0,
      "componentType": 5125,
      "count": 261,
      "max": [
        151
      ],
      "min": [
        0
      ],
      "type": "SCALAR"
    },
    {
      "bufferView": 2,
      "byteOffset": 3648,
      "componentType": 5126,
      "count": 184,
      "max": [
        0.76427298784255981,
        0.82846999168395996,
        1
      ],
      "min": [
        -0.76427298784255981,
        -0.82846999168395996,
        -0.99995100498199463
      ],
      "type": "VEC3"
    },
    {
      "bufferView": 2,
      "byteOffset": 5856,
      "componentType": 5126,
      "count": 184,
      "max": [
        1,
        1,
        1
      ],
      "min": [
        -1,
        -1,
        -1
      ],
      "type": "VEC3"
    },
    {
      "bufferView": 3,
      "byteOffset": 2432,
      "componentType": 5126,
      "count": 184,
      "max": [
        1,
        0.99999988079071045,
        1,
        1
      ],
      "min": [
        -1,
        -0.80113846063613892,
        -1,
        -1
      ],
      "type": "VEC4"
    },
    {
      "bufferView": 1,
      "byteOffset": 1216,
      "componentType": 5126,
      "count": 184,
      "max": [
        0.98205500841140747,
        0.98232197761535645
      ],
      "min": [
        0.021001100540161133,
        0.012470499612390995
      ],
      "type": "VEC2"
    },
    {
      "bufferView": 0,
      "byteOffset": 1044,
      "componentType": 5125,
      "count": 384,
      "max": [
        183
      ],
      "min": [
        0
      ],
      "type": "SCALAR"
    },
    {
      "bufferView": 2,
      "byteOffset": 8064,
      "componentType": 5126,
      "count": 271,
      "max": [
        0.75382500886917114,
        0.81047201156616211,
        0.99804800748825073
      ],
      "min": [
        -0.75382500886917114,
        0.079956099390983582,
        -0.75298100709915161
      ],
      "type": "VEC3"
    },
    {
      "bufferView": 2,
      "byteOffset": 11316,
      "componentType": 5126,
      "count": 271,
      "max": [
        0.99856162071228027,
        0.99763137102127075,
        0.9982338547706604
      ],
      "min": [
        -0.99856162071228027,
        0.0047968002036213875,
        0.0027113191317766905
      ],
      "type": "VEC3"
    },
    {
      "bufferView": 3,
      "byteOffset": 5376,
      "componentType": 5126,
      "count": 271,
      "max": [
        1,
        0.99847292900085449,
        0.17528606951236725,
        1
      ],
      "min": [
        -1,
        -0.74744164943695068,
        -0.99987602233886719,
        1
      ],
      "type": "VEC4"
    },
    {
      "bufferView": 1,
      "byteOffset": 2688,
      "componentType": 5126,
      "count": 271,
      "max": [
        0.84602797031402588,
        0.99177098274230957
      ],
      "min": [
        0.023267600685358047,
        0.0038683800958096981
      ],
      "type": "VEC2"
    },
    {
      "bufferView": 0,
      "byteOffset": 2580,
      "componentType": 5125,
      "count": 1131,
      "max": [
        270
      ],
      "min": [
        0
      ],
      "type": "SCALAR"
    },
    {
      "bufferView": 2,
      "byteOffset": 14568,
      "componentType": 5126,
      "count": 126,
      "max": [
        0.61124700307846069,
        0.14245100319385529,
        0.59982800483703613
      ],
      "min": [
        -0.61124598979949951,
        -0.19591799378395081,
        0.16496600210666656
      ],
      "type": "VEC3"
    },
    {
      "bufferView": 2,
      "byteOffset": 16080,
      "componentType": 5126,
      "count": 126,
      "max": [
        1,
        0.85200786590576172,
        0.85200786590576172
      ],
      "min": [
        -1,
        -0.85200786590576172,
        -0.85200786590576172
      ],
      "type": "VEC3"
    },
    {
      "bufferView": 3,
      "byteOffset": 9712,
      "componentType": 5126,
      "count": 126,
      "max": [
        1,
        0.85200798511505127,
        0.68361943960189819,
        1
      ],
      "min": [
        -1,
        -0.85200828313827515,
        -0.8520093560218811,
        -1
      ],
      "type": "VEC4"
    },
    {
      "bufferView": 1,
      "byteOffset": 4856,
      "componentType": 5126,
      "count": 126,
      "max": [
        0.98357999324798584,
        0.55699098110198975
      ],
      "min": [
        0.005842600017786026,
        0.02242710068821907
      ],
      "type": "VEC2"
    },
    {
      "bufferView": 0,
      "byteOffset": 7104,
      "componentType": 5125,
      "count": 204,
      "max": [
        125
      ],
      "min": [
        0
      ],
      "type": "SCALAR"
    },
    {
      "bufferView": 2,
      "byteOffset": 17592,
      "componentType": 5126,
      "count": 72,
      "max": [
        0.16634100675582886,
        -0.55607801675796509,
        0.57426798343658447
      ],
      "min": [
        -0.16633999347686768,
        -0.66337800025939941,
        0.47324898838996887
      ],
      "type": "VEC3"
    },
    {
      "bufferView": 2,
      "byteOffset": 18456,
      "componentType": 5126,
      "count": 72,
      "max": [
        1,
        0.730538010597229,
        0.730538010597229
      ],
      "min": [
        -1,
        -0.730538010597229,
        -0.730538010597229
      ],
      "type": "VEC3"
    },
    {
      "bufferView": 3,
      "byteOffset": 11728,
      "componentType": 5126,
      "count": 72,
      "max": [
        1,
        0.73054063320159912,
        0.68287205696105957,
        1
      ],
      "min": [
        -1,
        -4.4543756416715041e-07,
        -4.1637375147729472e-07,
        -1
      ],
      "type": "VEC4"
    },
    {
      "bufferView": 1,
      "byteOffset": 5864,
      "componentType": 5126,
      "count": 72,
      "max": [
        0.93681901693344116,
        0.19454599916934967
      ],
      "min": [
        0.8951219916343689,
        0.14717699587345123
      ],
      "type": "VEC2"
    },
    {
      "bufferView": 0,
      "byteOffset": 7920,
      "componentType": 5125,
      "count": 120,
      "max": [
        71
      ],
      "min": [
        0
      ],
      "type": "SCALAR"
    },
    {
      "bufferView": 2,
      "byteOffset": 19320,
      "componentType": 5126,
      "count": 192,
      "max": [
        0.1134210005402565,
        -0.60428398847579956,
        0.63256698846817017
      ],
      "min": [
        -0.11342000216245651,
        -0.71825098991394043,
        0.51215898990631104
      ],
      "type": "VEC3"
    },
    {
      "bufferView": 2,
      "byteOffset": 21624,
      "componentType": 5126,
      "count": 192,
      "max": [
        0.98078536987304688,
        0.72271323204040527,
        0.73687219619750977
      ],
      "min": [
        -0.98078536987304688,
        -0.72271323204040527,
        -0.73687219619750977
      ],
      "type": "VEC3"
    },
    {
      "bufferView": 3,
      "byteOffset": 12880,
      "componentType": 5126,
      "count": 192,
      "max": [
        0.98157006502151489,
        0.72276860475540161,
        0.6630823016166687,
        1
      ],
      "min": [
        -0.98110085725784302,
        -0.72276747226715088,
        -0.66308289766311646,
        -1
      ],
      "type": "VEC4"
    },
    {
      "bufferView": 1,
      "byteOffset": 6440,
      "componentType": 5126,
      "count": 192,
      "max": [
        0.88095200061798096,
        0.19583599269390106
      ],
      "min": [
        0.85487699508666992,
        0.1488569974899292
      ],
      "type": "VEC2"
    },
    {
      "bufferView": 0,
      "byteOffset": 8400,
      "componentType": 5125,
      "count": 360,
      "max": [
        191
      ],
      "min": [
        0
      ],
      "type": "SCALAR"
    },
    {
      "bufferView": 2,
      "byteOffset": 23928,
      "componentType": 5126,
      "count": 516,
      "max": [
        0.76001697778701782,
        0.7055019736289978,
        0.9897339940071106
      ],
      "min": [
        -0.76001602411270142,
        0.070546798408031464,
        -0.81594300270080566
      ],
      "type": "VEC3"
    },
    {
      "bufferView": 2,
      "byteOffset": 30120,
      "componentType": 5126,
      "count": 516,
      "max": [
        0.99959123134613037,
        0.99676674604415894,
        0.91980910301208496
      ],
      "min": [
        -0.99959123134613037,
        -0.9969867467880249,
        -0.91155797243118286
      ],
      "type": "VEC3"
    },
    {
      "bufferView": 3,
      "byteOffset": 15952,
      "componentType": 5126,
      "count": 516,
      "max": [
        0.99905586242675781,
        0.99738913774490356,
        0.98399317264556885,
        1
      ],
      "min": [
        -0.99905592203140259,
        -0.98517787456512451,
        -0.99649059772491455,
        -1
      ],
      "type": "VEC4"
    },
    {
      "bufferView": 1,
      "byteOffset": 7976,
      "componentType": 5126,
      "count": 516,
      "max": [
        0.98885601758956909,
        0.98958700895309448
      ],
      "min": [
        0.69694399833679199,
        0.45857501029968262
      ],
      "type": "VEC2"
    },
    {
      "bufferView": 0,
      "byteOffset": 9840,
      "componentType": 5125,
      "count": 1392,
      "max": [
        515
      ],
      "min": [
        0
      ],
      "type": "SCALAR"
    }
  ],
  "asset": {
    "extras": {
      "author": "Enshin (https://sketchfab.com/enshin)",
      "license": "CC-BY-4.0 (http://creativecommons.org/licenses/by/4.0/)",
      "source": "https://sketchfab.com/3d-models/cockpit-for-vr-protoptype-35597b2e081c41d288052b2e96fbb4a0",
      "title": "Cockpit for VR (protoptype)"
    },
    "generator": "Sketchfab-4.78.0",
    "version": "2.0"
  },
  "bufferViews": [
    {
      "buffer": 0,
      "byteLength": 15408,
      "byteOffset": 0,
      "name": "floatBufferViews",
      "target": 34963
    },
    {
      "buffer": 0,
      "byteLength": 12104,
      "byteOffset": 15408,
      "byteStride": 8,
      "name": "floatBufferViews",
      "target": 34962
    },
    {
      "buffer": 0,
      "byteLength": 36312,
      "byteOffset": 27512,
      "byteStride": 12,
      "name": "floatBufferViews",
      "target": 34962
    },
    {
      "buffer": 0,
      "byteLength": 24208,
      "byteOffset": 63824,
      "byteStride": 16,
      "name": "floatBufferViews",
      "target": 34962
    }
  ],
  "buffers": [
    {
      "byteLength": 88032,
      "uri": "scene.bin"
    }
  ],
  "images": [
    {
      "uri": "textures/without_panels_emissive.jpeg"
    },
    {
      "uri": "textures/without_panels_baseColor.png"
    },
    {
      "uri": "textures/without_panels_metallicRoughness.png"
    },
    {
      "uri": "textures/without_panels_normal.png"
    },
    {
      "uri": "textures/panels_emissive.jpeg"
    },
    {
      "uri": "textures/panels_baseColor.png"
    },
    {
      "uri": "textures/panels_metallicRoughness.png"
    },
    {
      "uri": "textures/panels_normal.png"
    }
  ],
  "materials": [
    {
      "alphaMode": "BLEND",
      "doubleSided": true,
      "emissiveFactor": [
        1,
        1,
        1
      ],
      "emissiveTexture": {
        "index": 0,
        "texCoord": 0
      },
      "name": "without_panels",
      "normalTexture": {
        "index": 3,
        "scale": 1,
        "texCoord": 0
      },
      "pbrMetallicRoughness": {
        "baseColorFactor": [
          1,
          1,
          1,
          1
        ],
        "baseColorTexture": {
          "index": 1,
          "texCoord": 0
        },
        "metallicFactor": 1,
        "metallicRoughnessTexture": {
          "index": 2,
          "texCoord": 0
        },
        "roughnessFactor": 1
      }
    },
    {
      "alphaMode": "BLEND",
      "doubleSided": true,
      "emissiveFactor": [
        1,
        1,
        1
      ],
      "emissiveTexture": {
        "index": 4,
        "texCoord": 0
      },
      "name": "panels",
      "normalTexture": {
        "index": 7,
        "scale": 1,
        "texCoord": 0
      },
      "pbrMetallicRoughness": {
        "baseColorFactor": [
          1,
          1,
          1,
          1
        ],
        "baseColorTexture": {
          "index": 5,
          "texCoord": 0
        },
        "metallicFactor": 1,
        "metallicRoughnessTexture": {
          "index": 6,
          "texCoord": 0
        },
        "roughnessFactor": 1
      }
    }
  ],
  "meshes": [
    {
      "name": "defaultMaterial",
      "primitives": [
        {
          "attributes": {
            "NORMAL": 1,
            "POSITION": 0,
            "TANGENT": 2,
            "TEXCOORD_0": 3
          },
          "indices": 4,
          "material": 0,
          "mode": 4
        }
      ]
    },
    {
      "name": "defaultMaterial",
      "primitives": [
        {
          "attributes": {
            "NORMAL": 6,
            "POSITION": 5,
            "TANGENT": 7,
            "TEXCOORD_0": 8
          },
          "indices": 9,
          "material": 1,
          "mode": 4
        }
      ]
    },
    {
      "name": "defaultMaterial",
      "primitives": [
        {
          "attributes": {
            "NORMAL": 11,
            "POSITION": 10,
            "TANGENT": 12,
            "TEXCOORD_0": 13
          },
          "indices": 14,
          "material": 0,
          "mode": 4
        }
      ]
    },
    {
      "name": "defaultMaterial",
      "primitives": [
        {
          "attributes": {
            "NORMAL": 16,
            "POSITION": 15,
            "TANGENT": 17,
            "TEXCOORD_0": 18
          },
          "indices": 19,
          "material": 0,
          "mode": 4
        }
      ]
    },
    {
      "name": "defaultMaterial",
      "primitives": [
        {
          "attributes": {
            "NORMAL": 21,
            "POSITION": 20,
            "TANGENT": 22,
            "TEXCOORD_0": 23
          },
          "indices": 24,
          "material": 0,
          "mode": 4
        }
      ]
    },
    {
      "name": "defaultMaterial",
      "primitives": [
        {
          "attributes": {
            "NORMAL": 26,
            "POSITION": 25,
            "TANGENT": 27,
            "TEXCOORD_0": 28
          },
          "indices": 29,
          "material": 0,
          "mode": 4
        }
      ]
    },
    {
      "name": "defaultMaterial",
      "primitives": [
        {
          "attributes": {
            "NORMAL": 31,
            "POSITION": 30,
            "TANGENT": 32,
            "TEXCOORD_0": 33
          },
          "indices": 34,
          "material": 0,
          "mode": 4
        }
      ]
    }
  ],
  "nodes": [
    {
      "children": [
        1
      ],
      "name": "RootNode (gltf orientation matrix)",
      "rotation": [
        -0.70710678118654746,
        -0,
        -0,
        0.70710678118654757
      ]
    },
    {
      "children": [
        2
      ],
      "name": "RootNode (model correction matrix)"
    },
    {
      "children": [
        3,
        5,
        7,
        9,
        11,
        13,
        15
      ],
      "matrix": [
        1,
        0,
        0,
        0,
        0,
        -4.3711390063094768e-08,
        0.999999999999999,
        0,
        0,
        -0.999999999999999,
        -4.3711390063094768e-08,
        0,
        0,
        0,
        0,
        1
      ],
      "name": "Collada visual scene group"
    },
    {
      "children": [
        4
      ],
      "name": "Cube.004"
    },
    {
      "mesh": 0,
      "name": "defaultMaterial"
    },
    {
      "children": [
        6
      ],
      "name": "Cube.005"
    },
    {
      "mesh": 1,
      "name": "defaultMaterial"
    },
    {
      "children": [
        8
      ],
      "name": "Cylinder"
    },
    {
      "mesh": 2,
      "name": "defaultMaterial"
    },
    {
      "children": [
        10
      ],
      "name": "monitor"
    },
    {
      "mesh": 3,
      "name": "defaultMaterial"
    },
    {
      "children": [
        12
      ],
      "name": "Plane"
    },
    {
      "mesh": 4,
      "name": "defaultMaterial"
    },
    {
      "children": [
        14
      ],
      "name": "Cylinder.001"
    },
    {
      "mesh": 5,
      "name": "defaultMaterial"
    },
    {
      "children": [
        16
      ],
      "name": "Cylinder.005"
    },
    {
      "mesh": 6,
      "name": "defaultMaterial"
    }
  ],
  "samplers": [
    {
      "magFilter": 9729,
      "minFilter": 9987,
      "wrapS": 10497,
      "wrapT": 10497
    }
  ],
  "scene": 0,
  "scenes": [
    {
      "name": "OSG_Scene",
      "nodes": [
        0
      ]
    }
  ],
  "textures": [
    {
      "sampler": 0,
      "source": 0
    },
    {
      "sampler": 0,
      "source": 1
    },
    {
      "sampler": 0,
      "source": 2
    },
    {
      "sampler": 0,
      "source": 3
    },
    {
      "sampler": 0,
      "source": 4
    },
    {
      "sampler": 0,
      "source": 5
    },
    {
      "sampler": 0,
      "source": 6
    },
    {
      "sampler": 0,
      "source": 7
    }
  ]
}

